<svg width="50" height="50" fill="none" xmlns="http://www.w3.org/2000/svg">
   <g clip-path="url(#a)" fill="#BB1219">
      <path
         d="m13.556 37.938-4.228-.614-1.89-3.832H6.43l-1.89 3.832-4.229.614-.311.958 3.06 2.982-.723 4.21.815.593 3.782-1.988 3.781 1.988.815-.592-.722-4.211 3.06-2.982-.312-.958ZM50 38.896l-.311-.958-4.228-.614-1.891-3.832h-1.007l-1.891 3.832-4.228.614-.311.958 3.06 2.982-.723 4.21.815.593 3.781-1.988 3.782 1.988.815-.592-.722-4.211L50 38.896ZM31.622 37.938l-4.228-.614-1.89-3.832h-1.008l-1.89 3.832-4.228.614-.312.958 3.06 2.982-.723 4.21.816.593L25 44.693l3.782 1.988.814-.592-.722-4.211 3.06-2.982-.312-.958ZM25 3.32c-7.296 0-13.232 5.935-13.232 13.232 0 7.296 5.936 13.232 13.232 13.232 7.296 0 13.232-5.936 13.232-13.232 0-7.297-5.936-13.233-13.232-13.233Zm-1.132 17.93-5.232-5.232 2.072-2.072 3.16 3.16 5.424-5.424 2.072 2.072-7.496 7.496Z" />
   </g>
   <defs>
      <clipPath id="a">
         <path fill="#fff" d="M0 0h50v50H0z" />
      </clipPath>
   </defs>
</svg>