<svg aria-hidden="true" style="position: absolute; width: 0; height: 0; overflow: hidden;" version="1.1" xmlns="http://www.w3.org/2000/svg" xmlns:xlink="http://www.w3.org/1999/xlink">
<defs>
<symbol id="check-1" viewBox="0 0 32 32">
<path fill="#bb1219" style="fill: var(--color1, #bb1219)" d="M8.676 24.28l-2.706-0.393-1.21-2.452h-0.645l-1.21 2.452-2.707 0.393-0.199 0.613 1.958 1.908-0.463 2.694 0.522 0.38 2.42-1.272 2.42 1.272 0.522-0.379-0.462-2.695 1.958-1.908-0.2-0.613zM32 24.893l-0.199-0.613-2.706-0.393-1.21-2.452h-0.644l-1.21 2.452-2.706 0.393-0.199 0.613 1.958 1.908-0.463 2.694 0.522 0.38 2.42-1.272 2.42 1.272 0.522-0.379-0.462-2.695 1.958-1.908zM20.238 24.28l-2.706-0.393-1.21-2.452h-0.645l-1.21 2.452-2.706 0.393-0.2 0.613 1.958 1.908-0.463 2.694 0.522 0.38 2.42-1.272 2.42 1.272 0.521-0.379-0.462-2.695 1.958-1.908-0.2-0.613zM16 2.125c-4.669 0-8.468 3.798-8.468 8.468s3.799 8.468 8.468 8.468 8.468-3.799 8.468-8.468c0-4.67-3.799-8.469-8.468-8.469zM15.276 13.6l-3.348-3.348 1.326-1.326 2.022 2.022 3.471-3.471 1.326 1.326-4.797 4.797z"></path>
</symbol>
<symbol id="projects-1" viewBox="0 0 32 32">
<path fill="#bb1219" style="fill: var(--color1, #bb1219)" d="M5.626 28.25v3.656c1.841-0.389 3.266-1.814 3.65-3.624l0.005-0.031h-3.655zM16.937 28.25v3.656c1.841-0.389 3.266-1.814 3.65-3.624l0.005-0.031h-3.655z"></path>
<path fill="#bb1219" style="fill: var(--color1, #bb1219)" d="M31.062 20.75h-2.812v-4.75c0-0.518-0.42-0.938-0.938-0.938h-10.375v-2.875h4.687c0.518 0 0.938-0.419 0.938-0.938v-1.875h-13.125v1.875c0 0.518 0.419 0.938 0.938 0.938h4.687v2.875h-10.374c-0.518 0-0.938 0.419-0.938 0.938v4.75h-2.812c-0.518 0-0.938 0.419-0.938 0.938v9.375c0 0.518 0.419 0.938 0.938 0.938h2.812v-4.687c0-0.518 0.42-0.938 0.938-0.938h4.687v-4.687c0-0.518-0.419-0.938-0.937-0.938h-2.813v-3.812h9.436v3.812h-2.812c-0.518 0-0.938 0.419-0.938 0.938v9.375c0 0.518 0.419 0.938 0.938 0.938h2.812v-4.687c0-0.518 0.419-0.938 0.938-0.938h4.687v-4.687c0-0.518-0.419-0.938-0.938-0.938h-2.812v-3.812h9.437v3.812h-2.813c-0.518 0-0.937 0.419-0.937 0.938v9.375c0 0.518 0.419 0.938 0.937 0.938h2.813v-4.687c0-0.518 0.419-0.938 0.938-0.938h4.687v-4.687c0-0.518-0.419-0.938-0.938-0.938z"></path>
<path fill="#bb1219" style="fill: var(--color1, #bb1219)" d="M31.904 28.25h-3.654v3.656c1.84-0.389 3.265-1.814 3.649-3.624l0.005-0.031zM9.437 4.687h13.125v2.813h-13.125v-2.813zM22.562 0.938c0-0.518-0.419-0.938-0.938-0.938h-11.25c-0.518 0-0.938 0.419-0.938 0.938v1.875h13.125v-1.875z"></path>
</symbol>
<symbol id="worldwide-1" viewBox="0 0 32 32">
<path fill="#bb1219" style="fill: var(--color1, #bb1219)" d="M3.621 20.287c-1.997 0-3.621 1.635-3.621 3.644 0 0.636 0.166 1.263 0.481 1.813 0.015 0.026 0.028 0.052 0.041 0.079l2.596 4.644c0.073 0.129 0.209 0.214 0.365 0.214 0.149 0 0.281-0.079 0.354-0.197l0.001-0.002 2.909-4.714c0.311-0.527 0.495-1.161 0.495-1.838 0-0 0-0.001 0-0.001v0c0-2.010-1.624-3.644-3.621-3.644zM3.621 25.398c-0.805-0.003-1.457-0.657-1.457-1.462 0-0.002 0-0.003 0-0.005v0c0-0.001 0-0.003 0-0.005 0-0.806 0.652-1.459 1.457-1.462h0c0.806 0.003 1.458 0.656 1.458 1.462 0 0.002 0 0.003 0 0.005v-0c0 0.001 0 0.003 0 0.005 0 0.806-0.652 1.46-1.458 1.462h-0z"></path>
<path fill="#bb1219" style="fill: var(--color1, #bb1219)" d="M28.176 13.971h-0.023c-0.387-0.009-0.722-0.225-0.9-0.54l-0.003-0.005-3.863-6.911c-0.009-0.016-0.021-0.039-0.032-0.061l-0.003-0.006c-0.453-0.808-0.72-1.774-0.72-2.802 0-0.488 0.060-0.963 0.174-1.416l-0.009 0.040c-0.806-0.314-1.718-0.608-2.65-0.844 0.004 0.101 0.007 0.219 0.007 0.337 0 1.671-0.499 3.225-1.357 4.521l0.019-0.031c-0.947 1.46-2.336 2.646-4.018 3.428-0.326 0.152-0.655 0.282-0.973 0.408-0.757 0.301-1.472 0.584-1.917 1.069-0.248 0.271-0.448 0.646-0.66 1.044-0.219 0.411-0.467 0.877-0.811 1.299-0.731 0.899-1.856 1.541-3.168 1.807-1.31 0.266-2.43 0.282-3.425 0.049-1.235-0.29-1.631-0.109-1.98 0.051-0.157 0.080-0.34 0.149-0.531 0.198l-0.019 0.004c-0.026 0.006-0.157 0.030-0.326 0.060-0.013 0.256-0.019 0.513-0.019 0.772 0 0.618 0.077 1.489 0.175 2.27 0.722-0.357 1.572-0.565 2.47-0.565 0.002 0 0.005 0 0.007 0h-0c3.168 0 5.746 2.594 5.746 5.782 0 0 0 0.001 0 0.001 0 1.070-0.289 2.072-0.793 2.933l0.015-0.027-0.015 0.026c-0.026 0.044-0.026 0.044-0.045 0.075l-0.1 0.16-1.153 1.869c0.509 0.379 1.086 0.747 1.689 1.071l0.075 0.037c0.558-0.412 0.17-0.126 0.558-0.412 1.124-0.828 2.427-2.426 2.689-3.725 0.279-1.382 0.206-2.826 0.129-4.355l-0.017-0.338c-0.060-1.208-0.082-2.387 0.285-3.539 0.473-1.483 1.572-2.597 2.867-2.908 1.338-0.321 2.541 0.202 3.604 0.664 0.212 0.092 0.413 0.179 0.611 0.259 2.359 0.943 5.065 0.822 7.416 0.636l0.388-0.031c1.402-0.114 2.851-0.231 4.316 0-0.020-1.783-0.49-3.875-1.107-5.613l-1.7 2.754c-0.194 0.314-0.536 0.505-0.902 0.505z"></path>
<path fill="#bb1219" style="fill: var(--color1, #bb1219)" d="M4.328 13.276c0.692 0.163 1.517 0.142 2.523-0.062 0.832-0.169 1.522-0.547 1.944-1.065 0.213-0.262 0.393-0.599 0.582-0.956 0.253-0.475 0.54-1.012 0.971-1.484 0.774-0.845 1.798-1.251 2.7-1.609 0.303-0.12 0.59-0.234 0.86-0.359 2.744-1.277 4.31-3.754 4.104-6.464-0.007-0.082-0.011-0.178-0.011-0.275v-0c-0.469-0.069-1.014-0.111-1.568-0.115l-0.005-0c-7.48 0-13.719 5.347-15.149 12.451 0.643-0.253 1.505-0.424 3.049-0.062zM31.505 5.484l0.012-0.021c0.304-0.522 0.484-1.149 0.484-1.818 0-0 0-0 0-0.001v0c0-2.010-1.624-3.644-3.621-3.644s-3.621 1.635-3.621 3.644c0 0.636 0.166 1.263 0.48 1.813 0.015 0.026 0.029 0.052 0.042 0.079l2.595 4.645c0.073 0.129 0.209 0.215 0.365 0.215 0.15 0 0.281-0.079 0.355-0.198l0.001-0.002 2.787-4.516c0.133-0.225 0.174-0.289 0.214-0.353l-0.092 0.157zM28.379 5.11c-0.806-0.003-1.458-0.656-1.458-1.462 0-0.002 0-0.003 0-0.005v0c0-0.002 0-0.003 0-0.005 0-0.806 0.652-1.46 1.458-1.462h0c0.806 0.003 1.458 0.656 1.458 1.462 0 0.002 0 0.003 0 0.005v-0c0 0.001 0 0.003 0 0.005 0 0.806-0.652 1.46-1.458 1.462h-0zM31.668 18.456c-1.249-0.217-2.55-0.111-3.927 0.001l-0.392 0.032c-2.589 0.205-5.584 0.331-8.367-0.781-0.382-0.15-0.603-0.246-0.822-0.344l0.152 0.061c-0.832-0.362-1.618-0.704-2.268-0.547-0.57 0.136-1.094 0.718-1.338 1.481-0.259 0.812-0.237 1.74-0.186 2.781l0.017 0.335c0.080 1.594 0.163 3.241-0.169 4.888-0.337 1.67-1.607 3.584-3.079 4.721 1.625 0.585 3.365 0.916 5.138 0.916 7.857 0 14.344-5.898 15.328-13.534-0.034-0.003-0.064-0.006-0.094-0.011l0.006 0.001z"></path>
</symbol>
<symbol id="support-1" viewBox="0 0 32 32">
<path fill="#bb1219" style="fill: var(--color1, #bb1219)" d="M2.813 13.125h8.986l3.475 3.475c0.17 0.17 0.404 0.276 0.664 0.276 0.517 0 0.937-0.419 0.937-0.937 0-0.001 0-0.001 0-0.002v0-2.812h2.188c1.553-0.002 2.811-1.26 2.813-2.813v-7.5c-0.002-1.553-1.26-2.811-2.813-2.813h-16.25c-1.553 0.002-2.811 1.26-2.813 2.813v7.5c0.002 1.553 1.26 2.811 2.813 2.813h0zM4.688 3.75h12.499c0.518 0 0.938 0.42 0.938 0.938s-0.42 0.938-0.938 0.938h-12.499c-0.518 0-0.938-0.42-0.938-0.938s0.42-0.938 0.938-0.938v0zM4.688 7.5h12.499c0.518 0 0.938 0.42 0.938 0.938s-0.42 0.938-0.938 0.938h-12.499c-0.518 0-0.938-0.42-0.938-0.938s0.42-0.938 0.938-0.938v0zM12.813 21.25h-1.032c-0.13-0.624-0.368-1.175-0.695-1.662l0.011 0.017 0.732-0.732c0.163-0.168 0.263-0.398 0.263-0.651 0-0.518-0.42-0.938-0.938-0.938-0.253 0-0.483 0.1-0.651 0.263l0-0-0.732 0.732c-0.47-0.317-1.022-0.554-1.616-0.679l-0.030-0.005v-1.031c0-0.518-0.42-0.938-0.938-0.938s-0.938 0.42-0.938 0.938v1.032c-0.597 0.122-1.153 0.358-1.645 0.685l-0.732-0.732c-0.17-0.17-0.404-0.275-0.663-0.275-0.518 0-0.938 0.42-0.938 0.938 0 0.259 0.105 0.493 0.275 0.663l0.732 0.732c-0.317 0.47-0.554 1.022-0.679 1.615l-0.005 0.030h-1.031c-0.518 0-0.938 0.42-0.938 0.938s0.42 0.938 0.938 0.938h1.032c0.122 0.597 0.358 1.153 0.684 1.645l-0.732 0.731c-0.177 0.171-0.287 0.41-0.287 0.675 0 0.518 0.42 0.938 0.938 0.938 0.265 0 0.504-0.11 0.674-0.286l0.732-0.732c0.47 0.317 1.022 0.554 1.616 0.679l0.030 0.005v1.032c0 0.518 0.42 0.938 0.938 0.938s0.938-0.42 0.938-0.938v0-1.032c0.623-0.13 1.175-0.368 1.661-0.695l-0.017 0.011 0.732 0.732c0.169 0.17 0.404 0.276 0.663 0.276s0.494-0.106 0.663-0.276l0-0c0.366-0.366 0.366-0.96 0-1.326l-0.732-0.732c0.317-0.47 0.554-1.022 0.679-1.615l0.005-0.030h1.031c0.518 0 0.938-0.42 0.938-0.938s-0.42-0.938-0.938-0.938v0zM7.187 23.125c-0.518 0-0.938-0.42-0.938-0.938s0.42-0.938 0.938-0.938v0c0.518 0 0.938 0.42 0.938 0.938s-0.42 0.938-0.938 0.938v0zM31.531 24.877l-0.768-0.444c0.034-0.261 0.054-0.564 0.054-0.87s-0.020-0.609-0.058-0.905l0.004 0.035 0.768-0.444c0.449-0.259 0.602-0.832 0.344-1.281l-1.875-3.248c-0.259-0.448-0.832-0.602-1.281-0.343l-0.772 0.446c-0.435-0.334-0.93-0.627-1.459-0.857l-0.046-0.018v-0.885c0-0.518-0.42-0.938-0.938-0.938h-3.75c-0.517 0-0.937 0.42-0.937 0.938v0.885c-0.534 0.227-1.037 0.52-1.504 0.875l-0.772-0.446c-0.134-0.079-0.296-0.125-0.468-0.125-0.345 0-0.647 0.186-0.809 0.464l-0.002 0.004-1.875 3.248c-0.259 0.448-0.106 1.021 0.343 1.28l0.768 0.444c-0.034 0.261-0.054 0.564-0.054 0.87s0.020 0.609 0.058 0.905l-0.004-0.035-0.768 0.444c-0.449 0.259-0.602 0.832-0.344 1.28l1.875 3.248c0.259 0.449 0.832 0.602 1.281 0.343l0.772-0.445c0.435 0.334 0.93 0.627 1.459 0.857l0.046 0.018v0.885c0 0.518 0.42 0.938 0.938 0.938h3.75c0.517 0 0.937-0.42 0.937-0.938v-0.885c0.534-0.227 1.037-0.52 1.504-0.875l0.772 0.446c0.448 0.259 1.021 0.105 1.28-0.344l1.875-3.247c0.259-0.448 0.106-1.021-0.343-1.281zM23.629 26.374c-1.552-0.002-2.81-1.26-2.812-2.812v-0c0.002-1.552 1.26-2.81 2.812-2.812h0c1.552 0.002 2.811 1.26 2.813 2.812v0c-0.002 1.553-1.26 2.811-2.813 2.813h-0z"></path>
</symbol>
<symbol id="warranty-1" viewBox="0 0 32 32">
<path fill="#bb1219" style="fill: var(--color1, #bb1219)" d="M22.293 25.428c-0.005 0-0.011 0-0.016 0-0.554 0-1.046-0.263-1.359-0.67l-0.003-0.004c-0.11 0.013-0.221 0.015-0.332 0.006v6.382l1.371-1.028c0.094-0.072 0.214-0.115 0.343-0.115s0.249 0.043 0.344 0.116l-0.001-0.001 1.372 1.028v-6.383c-0.042 0.004-0.091 0.006-0.14 0.006-0.072 0-0.142-0.004-0.211-0.013l0.008 0.001c-0.316 0.412-0.809 0.675-1.363 0.675-0.004 0-0.009-0-0.013-0h0.001zM0 26.572c0 0.947 0.768 1.714 1.715 1.714h17.728v-2.285h-19.443v0.572zM24.749 20.868c-0.223-0.081-0.38-0.291-0.38-0.538 0-0.089 0.021-0.174 0.057-0.249l-0.002 0.003c0.036-0.075 0.058-0.162 0.058-0.255 0-0.328-0.266-0.595-0.595-0.595-0.092 0-0.178 0.021-0.256 0.058l0.004-0.002c-0.072 0.035-0.157 0.056-0.246 0.056-0.247 0-0.457-0.157-0.537-0.376l-0.001-0.004c-0.084-0.232-0.302-0.395-0.558-0.395s-0.474 0.163-0.557 0.39l-0.001 0.004c-0.081 0.223-0.292 0.38-0.539 0.38-0.089 0-0.174-0.020-0.249-0.057l0.003 0.002c-0.074-0.036-0.161-0.056-0.253-0.056-0.328 0-0.594 0.266-0.594 0.594 0 0.093 0.021 0.181 0.060 0.26l-0.002-0.004c0.035 0.072 0.055 0.156 0.055 0.245 0 0.247-0.157 0.457-0.376 0.537l-0.004 0.001c-0.231 0.085-0.394 0.304-0.394 0.56s0.162 0.475 0.389 0.559l0.004 0.001c0.223 0.081 0.38 0.291 0.38 0.538 0 0.089-0.020 0.174-0.057 0.249l0.002-0.003c-0.037 0.075-0.058 0.163-0.058 0.256 0 0.328 0.266 0.594 0.594 0.594 0.092 0 0.179-0.021 0.256-0.058l-0.004 0.002c0.072-0.035 0.156-0.055 0.246-0.055 0.247 0 0.458 0.157 0.538 0.376l0.001 0.004c0.084 0.232 0.302 0.395 0.558 0.395s0.474-0.163 0.557-0.39l0.001-0.004c0.081-0.223 0.292-0.38 0.539-0.38 0.089 0 0.174 0.020 0.249 0.057l-0.003-0.002c0.074 0.035 0.161 0.056 0.252 0.056 0.328 0 0.595-0.266 0.595-0.595 0-0.093-0.021-0.18-0.059-0.259l0.002 0.004c-0.035-0.072-0.056-0.157-0.056-0.246 0-0.247 0.157-0.457 0.376-0.536l0.004-0.001c0.231-0.085 0.394-0.304 0.394-0.56s-0.162-0.475-0.389-0.559l-0.004-0.001z"></path>
<path fill="#bb1219" style="fill: var(--color1, #bb1219)" d="M4.572 2.572v22.285h14.87v-0.635c-0.3-0.309-0.485-0.731-0.485-1.196 0-0.078 0.005-0.154 0.015-0.23l-0.001 0.009c-0.412-0.322-0.674-0.819-0.674-1.377s0.262-1.055 0.67-1.374l0.004-0.003c-0.009-0.066-0.014-0.142-0.014-0.219 0-0.962 0.78-1.743 1.743-1.743 0.075 0 0.15 0.005 0.223 0.014l-0.009-0.001c0.321-0.412 0.818-0.674 1.376-0.674s1.055 0.262 1.373 0.671l0.003 0.004c0.064-0.008 0.138-0.013 0.213-0.013 0.963 0 1.743 0.781 1.743 1.743 0 0.077-0.005 0.152-0.015 0.227l0.001-0.009c0.412 0.322 0.674 0.819 0.674 1.377s-0.262 1.055-0.67 1.374l-0.004 0.003c0.066 0.512-0.102 1.026-0.457 1.4v3.975c0.18 0.067 0.371 0.102 0.563 0.106 0.947 0 1.714-0.768 1.714-1.715v-24c0.001-0.177 0.019-0.355 0.054-0.53 0.010-0.054 0.027-0.106 0.040-0.159 0.028-0.116 0.064-0.23 0.106-0.343 0.072-0.181 0.151-0.335 0.244-0.48l-0.007 0.012c0.029-0.048 0.056-0.096 0.090-0.142 0.016-0.024 0.028-0.049 0.045-0.072h-21.715c-0.947 0-1.714 0.768-1.714 1.715zM24.572 14.572h-9.715v-1.143h9.715v1.143zM24.572 11.715h-13.143v-1.143h13.143v1.143zM17.714 4.286h2.286v1.142h-2.286v-1.142zM12 4.286h4.572v1.142h-4.572v-1.142zM10.285 7.143h11.428v1.143h-11.428v-1.144zM7.428 10.572h2.857v1.143h-2.857v-1.143zM7.428 13.428h6.286v1.143h-6.286v-1.143zM7.428 16.286h11.428v1.142h-11.428v-1.142zM7.428 19.143h9.715v1.142h-9.715v-1.142zM30.285 0.858c-0.947 0-1.714 0.767-1.714 1.714v0.572h3.428v-0.572c0-0.947-0.768-1.715-1.715-1.715z"></path>
</symbol>
<symbol id="manufacturing-1" viewBox="0 0 32 32">
<path fill="#bb1219" style="fill: var(--color1, #bb1219)" d="M31.062 1.875c0.518 0 0.938-0.42 0.938-0.938s-0.42-0.938-0.938-0.938v0h-15.062c-0.518 0-0.938 0.42-0.938 0.938s0.42 0.938 0.938 0.938v0h4.687v5.687h-0.937c-0.249 0-0.486 0.099-0.662 0.275l-3.75 3.75c-0.175 0.176-0.275 0.414-0.275 0.663v3.75c0 0.25 0.099 0.487 0.275 0.663l2.537 2.537v-2.652l-0.938-0.938v-2.973l3.2-3.2h6.787l3.201 3.2v2.973l-0.938 0.938v2.652l2.538-2.538c0.176-0.176 0.275-0.414 0.275-0.663v-3.75c0-0.248-0.099-0.486-0.275-0.662l-3.75-3.75c-0.169-0.17-0.404-0.274-0.662-0.275h-0.939v-5.686h4.687zM28.188 24.5h-24.375c-2.071 0-3.812 1.679-3.812 3.75s1.741 3.75 3.812 3.75h24.375c2.071 0 3.812-1.679 3.812-3.75s-1.741-3.75-3.812-3.75zM4.75 29.187c-0.518 0-0.938-0.42-0.938-0.938s0.42-0.938 0.938-0.938v0c0.518 0 0.938 0.42 0.938 0.938s-0.42 0.938-0.938 0.938v0zM8.5 29.187c-0.518 0-0.938-0.42-0.938-0.938s0.42-0.938 0.938-0.938v0c0.518 0 0.938 0.42 0.938 0.938s-0.42 0.938-0.938 0.938v0zM12.25 29.187c-0.518 0-0.938-0.42-0.938-0.938s0.42-0.938 0.938-0.938v0c0.518 0 0.938 0.42 0.938 0.938s-0.42 0.938-0.938 0.938v0zM16 29.187c-0.518 0-0.938-0.42-0.938-0.938s0.42-0.938 0.938-0.938v0c0.518 0 0.938 0.42 0.938 0.938s-0.42 0.938-0.938 0.938v0zM19.75 29.187c-0.518 0-0.938-0.42-0.938-0.938s0.42-0.938 0.938-0.938v0c0.518 0 0.938 0.42 0.938 0.938s-0.42 0.938-0.938 0.938v0zM23.5 29.187c-0.518 0-0.938-0.42-0.938-0.938s0.42-0.938 0.938-0.938v0c0.518 0 0.938 0.42 0.938 0.938s-0.42 0.938-0.938 0.938v0zM27.251 29.187c-0 0-0 0-0 0-0.518 0-0.938-0.42-0.938-0.938s0.42-0.937 0.937-0.938h0c0.518 0 0.938 0.42 0.938 0.938s-0.42 0.938-0.938 0.938v0zM11.313 15.062h-5.626c-0.518 0-0.937 0.419-0.937 0.938v6.625h7.5v-6.625c0-0.518-0.42-0.938-0.938-0.938z"></path>
<path fill="#bb1219" style="fill: var(--color1, #bb1219)" d="M26.374 15.062h-5.687c-0.518 0-0.938 0.419-0.938 0.938v6.625h7.563v-6.625c0-0.518-0.419-0.938-0.938-0.938z"></path>
</symbol>
</defs>
</svg>
