<svg aria-hidden="true" style="position:absolute;width:0;height:0;overflow:hidden" xmlns="http://www.w3.org/2000/svg"><defs><symbol id="check-1" viewBox="0 0 32 32"><path fill="#bb1219" style="fill:var(--color1, #bb1219)" d="m8.676 24.28-2.706-.393-1.21-2.452h-.645l-1.21 2.452-2.707.393-.199.613 1.958 1.908-.463 2.694.522.38 2.42-1.272 2.42 1.272.522-.379-.462-2.695 1.958-1.908-.2-.613zM32 24.893l-.199-.613-2.706-.393-1.21-2.452h-.644l-1.21 2.452-2.706.393-.199.613 1.958 1.908-.463 2.694.522.38 2.42-1.272 2.42 1.272.522-.379-.462-2.695 1.958-1.908zm-11.762-.613-2.706-.393-1.21-2.452h-.645l-1.21 2.452-2.706.393-.2.613 1.958 1.908-.463 2.694.522.38 2.42-1.272 2.42 1.272.521-.379-.462-2.695 1.958-1.908-.2-.613zM16 2.125c-4.669 0-8.468 3.798-8.468 8.468s3.799 8.468 8.468 8.468 8.468-3.799 8.468-8.468c0-4.67-3.799-8.469-8.468-8.469zM15.276 13.6l-3.348-3.348 1.326-1.326 2.022 2.022 3.471-3.471 1.326 1.326-4.797 4.797z"/></symbol><symbol id="projects-1" viewBox="0 0 32 32"><path fill="#bb1219" style="fill:var(--color1, #bb1219)" d="M5.626 28.25v3.656a4.715 4.715 0 0 0 3.65-3.624l.005-.031H5.626zm11.311 0v3.656a4.715 4.715 0 0 0 3.65-3.624l.005-.031h-3.655z"/><path fill="#bb1219" style="fill:var(--color1, #bb1219)" d="M31.062 20.75H28.25V16a.938.938 0 0 0-.938-.938H16.937v-2.875h4.687a.937.937 0 0 0 .938-.938V9.374H9.437v1.875c0 .518.419.938.938.938h4.687v2.875H4.688A.937.937 0 0 0 3.75 16v4.75H.938a.937.937 0 0 0-.938.938v9.375c0 .518.419.938.938.938H3.75v-4.687c0-.518.42-.938.938-.938h4.687v-4.687a.937.937 0 0 0-.937-.938H5.625v-3.812h9.436v3.812h-2.812a.937.937 0 0 0-.938.938v9.375c0 .518.419.938.938.938h2.812v-4.687c0-.518.419-.938.938-.938h4.687V21.69a.937.937 0 0 0-.938-.938h-2.812V16.94h9.437v3.812H23.56a.937.937 0 0 0-.937.938v9.375c0 .518.419.938.937.938h2.813v-4.687c0-.518.419-.938.938-.938h4.687v-4.687a.937.937 0 0 0-.938-.938z"/><path fill="#bb1219" style="fill:var(--color1, #bb1219)" d="M31.904 28.25H28.25v3.656a4.715 4.715 0 0 0 3.649-3.624l.005-.031zM9.437 4.687h13.125V7.5H9.437V4.687zM22.562.938A.937.937 0 0 0 21.624 0h-11.25a.937.937 0 0 0-.938.938v1.875h13.125V.938z"/></symbol><symbol id="worldwide-1" viewBox="0 0 32 32"><path fill="#bb1219" style="fill:var(--color1, #bb1219)" d="M3.621 20.287C1.624 20.287 0 21.922 0 23.931c0 .636.166 1.263.481 1.813.015.026.028.052.041.079l2.596 4.644a.418.418 0 0 0 .719.017l.001-.002 2.909-4.714a3.62 3.62 0 0 0 .495-1.838v-.001c0-2.01-1.624-3.644-3.621-3.644zm0 5.111a1.463 1.463 0 0 1-1.457-1.462v-.01c0-.806.652-1.459 1.457-1.462a1.462 1.462 0 0 1 1.458 1.462v.01c0 .806-.652 1.46-1.458 1.462z"/><path fill="#bb1219" style="fill:var(--color1, #bb1219)" d="M28.176 13.971h-.023a1.062 1.062 0 0 1-.9-.54l-.003-.005-3.863-6.911a1.55 1.55 0 0 1-.032-.061l-.003-.006a5.742 5.742 0 0 1-.72-2.802c0-.488.06-.963.174-1.416l-.009.04a22.912 22.912 0 0 0-2.65-.844 8.161 8.161 0 0 1-1.35 4.858l.019-.031c-.947 1.46-2.336 2.646-4.018 3.428-.326.152-.655.282-.973.408-.757.301-1.472.584-1.917 1.069-.248.271-.448.646-.66 1.044-.219.411-.467.877-.811 1.299-.731.899-1.856 1.541-3.168 1.807-1.31.266-2.43.282-3.425.049-1.235-.29-1.631-.109-1.98.051-.157.08-.34.149-.531.198l-.019.004c-.026.006-.157.03-.326.06-.013.256-.019.513-.019.772 0 .618.077 1.489.175 2.27a5.595 5.595 0 0 1 2.47-.565h.007c3.168 0 5.746 2.594 5.746 5.782v.001c0 1.07-.289 2.072-.793 2.933l.015-.027-.015.026-.045.075-.1.16-1.153 1.869c.509.379 1.086.747 1.689 1.071l.075.037.558-.412c1.124-.828 2.427-2.426 2.689-3.725.279-1.382.206-2.826.129-4.355l-.017-.338c-.06-1.208-.082-2.387.285-3.539.473-1.483 1.572-2.597 2.867-2.908 1.338-.321 2.541.202 3.604.664.212.092.413.179.611.259 2.359.943 5.065.822 7.416.636l.388-.031c1.402-.114 2.851-.231 4.316 0-.02-1.783-.49-3.875-1.107-5.613l-1.7 2.754a1.062 1.062 0 0 1-.902.505z"/><path fill="#bb1219" style="fill:var(--color1, #bb1219)" d="M4.328 13.276c.692.163 1.517.142 2.523-.062.832-.169 1.522-.547 1.944-1.065.213-.262.393-.599.582-.956.253-.475.54-1.012.971-1.484.774-.845 1.798-1.251 2.7-1.609.303-.12.59-.234.86-.359 2.744-1.277 4.31-3.754 4.104-6.464a3.32 3.32 0 0 1-.011-.275 11.594 11.594 0 0 0-1.568-.115h-.005c-7.48 0-13.719 5.347-15.149 12.451.643-.253 1.505-.424 3.049-.062zm27.177-7.792.012-.021a3.618 3.618 0 0 0 .484-1.818v-.001C32.001 1.634 30.377 0 28.38 0s-3.621 1.635-3.621 3.644c0 .636.166 1.263.48 1.813.015.026.029.052.042.079l2.595 4.645a.419.419 0 0 0 .72.017l.001-.002 2.787-4.516c.133-.225.174-.289.214-.353l-.092.157zm-3.126-.374a1.462 1.462 0 0 1-1.458-1.462v-.01c0-.806.652-1.46 1.458-1.462a1.462 1.462 0 0 1 1.458 1.462v.01c0 .806-.652 1.46-1.458 1.462zm3.289 13.346c-1.249-.217-2.55-.111-3.927.001l-.392.032c-2.589.205-5.584.331-8.367-.781-.382-.15-.603-.246-.822-.344l.152.061c-.832-.362-1.618-.704-2.268-.547-.57.136-1.094.718-1.338 1.481-.259.812-.237 1.74-.186 2.781l.017.335c.08 1.594.163 3.241-.169 4.888-.337 1.67-1.607 3.584-3.079 4.721 1.625.585 3.365.916 5.138.916 7.857 0 14.344-5.898 15.328-13.534a1.217 1.217 0 0 1-.094-.011l.006.001z"/></symbol><symbol id="support-1" viewBox="0 0 32 32"><path fill="#bb1219" style="fill:var(--color1, #bb1219)" d="M2.813 13.125h8.986l3.475 3.475a.936.936 0 0 0 1.601-.661V13.125h2.188a2.816 2.816 0 0 0 2.813-2.813v-7.5a2.816 2.816 0 0 0-2.813-2.813H2.813A2.816 2.816 0 0 0 0 2.812v7.5a2.816 2.816 0 0 0 2.813 2.813zM4.688 3.75h12.499a.938.938 0 0 1 0 1.876H4.688a.938.938 0 0 1 0-1.876zm0 3.75h12.499a.938.938 0 0 1 0 1.876H4.688a.938.938 0 0 1 0-1.876zm8.125 13.75h-1.032a4.653 4.653 0 0 0-.695-1.662l.011.017.732-.732a.938.938 0 0 0-1.326-1.326l-.732.732a4.592 4.592 0 0 0-1.616-.679l-.03-.005v-1.031a.938.938 0 0 0-1.876 0v1.032a4.652 4.652 0 0 0-1.645.685l-.732-.732a.938.938 0 0 0-1.326 1.326l.732.732a4.595 4.595 0 0 0-.679 1.615l-.005.03H1.563a.938.938 0 0 0 0 1.876h1.032c.122.597.358 1.153.684 1.645l-.732.731a.938.938 0 1 0 1.325 1.327l.732-.732c.47.317 1.022.554 1.616.679l.03.005v1.032a.938.938 0 0 0 1.876 0v-1.032a4.648 4.648 0 0 0 1.661-.695l-.017.011.732.732a.933.933 0 0 0 1.326 0 .938.938 0 0 0 0-1.326l-.732-.732c.317-.47.554-1.022.679-1.615l.005-.03h1.031a.938.938 0 0 0 0-1.876zm-5.626 1.875a.938.938 0 0 1 0-1.876.938.938 0 0 1 0 1.876zm24.344 1.752-.768-.444a7.116 7.116 0 0 0-.004-1.775l.004.035.768-.444a.938.938 0 0 0 .344-1.281L30 17.72a.938.938 0 0 0-1.281-.343l-.772.446a6.977 6.977 0 0 0-1.459-.857l-.046-.018v-.885a.938.938 0 0 0-.938-.938h-3.75a.938.938 0 0 0-.937.938v.885a7.02 7.02 0 0 0-1.504.875l-.772-.446a.935.935 0 0 0-1.277.339l-.002.004-1.875 3.248a.936.936 0 0 0 .343 1.28l.768.444a7.116 7.116 0 0 0 .004 1.775l-.004-.035-.768.444a.937.937 0 0 0-.344 1.28l1.875 3.248a.937.937 0 0 0 1.281.343l.772-.445c.435.334.93.627 1.459.857l.046.018v.885c0 .518.42.938.938.938h3.75c.517 0 .937-.42.937-.938v-.885a7.02 7.02 0 0 0 1.504-.875l.772.446a.937.937 0 0 0 1.28-.344l1.875-3.247a.938.938 0 0 0-.343-1.281zm-7.902 1.497a2.816 2.816 0 0 1-2.812-2.812 2.816 2.816 0 0 1 2.812-2.812 2.817 2.817 0 0 1 2.813 2.812 2.816 2.816 0 0 1-2.813 2.813z"/></symbol><symbol id="warranty-1" viewBox="0 0 32 32"><path fill="#bb1219" style="fill:var(--color1, #bb1219)" d="M22.293 25.428h-.016a1.71 1.71 0 0 1-1.359-.67l-.003-.004c-.11.013-.221.015-.332.006v6.382l1.371-1.028a.564.564 0 0 1 .687.001l-.001-.001 1.372 1.028v-6.383a1.522 1.522 0 0 1-.351-.007l.008.001a1.713 1.713 0 0 1-1.363.675h-.013.001zM0 26.572c0 .947.768 1.714 1.715 1.714h17.728v-2.285H0v.572zm24.749-5.704a.572.572 0 0 1-.323-.787l-.002.003a.595.595 0 0 0-.793-.792l.004-.002a.572.572 0 0 1-.783-.32l-.001-.004a.594.594 0 0 0-1.115-.005l-.001.004a.574.574 0 0 1-.788.323l.003.002a.594.594 0 0 0-.787.798l-.002-.004a.572.572 0 0 1-.321.782l-.004.001a.597.597 0 0 0-.005 1.119l.004.001a.572.572 0 0 1 .323.787l.002-.003a.594.594 0 0 0 .792.792l-.004.002a.573.573 0 0 1 .784.321l.001.004a.594.594 0 0 0 1.115.005l.001-.004a.574.574 0 0 1 .788-.323l-.003-.002a.594.594 0 0 0 .847-.539.593.593 0 0 0-.059-.259l.002.004a.57.57 0 0 1 .32-.782l.004-.001a.597.597 0 0 0 .005-1.119l-.004-.001z"/><path fill="#bb1219" style="fill:var(--color1, #bb1219)" d="M4.572 2.572v22.285h14.87v-.635a1.712 1.712 0 0 1-.47-1.426l-.001.009a1.742 1.742 0 0 1-.004-2.751l.004-.003a1.743 1.743 0 0 1 1.952-1.948l-.009-.001a1.739 1.739 0 0 1 2.749-.003l.003.004a1.743 1.743 0 0 1 1.941 1.957l.001-.009a1.742 1.742 0 0 1 .004 2.751l-.004.003a1.715 1.715 0 0 1-.457 1.4v3.975c.18.067.371.102.563.106.947 0 1.714-.768 1.714-1.715v-24c.001-.177.019-.355.054-.53.01-.054.027-.106.04-.159.028-.116.064-.23.106-.343.072-.181.151-.335.244-.48l-.007.012c.029-.048.056-.096.09-.142.016-.024.028-.049.045-.072H6.285c-.947 0-1.714.768-1.714 1.715zm20 12h-9.715v-1.143h9.715v1.143zm0-2.857H11.429v-1.143h13.143v1.143zm-6.858-7.429H20v1.142h-2.286V4.286zm-5.714 0h4.572v1.142H12V4.286zm-1.715 2.857h11.428v1.143H10.285V7.142zm-2.857 3.429h2.857v1.143H7.428v-1.143zm0 2.856h6.286v1.143H7.428v-1.143zm0 2.858h11.428v1.142H7.428v-1.142zm0 2.857h9.715v1.142H7.428v-1.142zM30.285.858c-.947 0-1.714.767-1.714 1.714v.572h3.428v-.572c0-.947-.768-1.715-1.715-1.715z"/></symbol><symbol id="manufacturing-1" viewBox="0 0 32 32"><path fill="#bb1219" style="fill:var(--color1, #bb1219)" d="M31.062 1.875a.938.938 0 0 0 0-1.876H16a.938.938 0 0 0 0 1.876h4.687v5.687h-.937a.935.935 0 0 0-.662.275l-3.75 3.75a.941.941 0 0 0-.275.663V16c0 .25.099.487.275.663l2.537 2.537v-2.652l-.938-.938v-2.973l3.2-3.2h6.787l3.201 3.2v2.973l-.938.938V19.2l2.538-2.538a.937.937 0 0 0 .275-.663v-3.75a.936.936 0 0 0-.275-.662l-3.75-3.75a.936.936 0 0 0-.662-.275h-.939V1.876h4.687zM28.188 24.5H3.813c-2.071 0-3.812 1.679-3.812 3.75S1.742 32 3.813 32h24.375C30.259 32 32 30.321 32 28.25s-1.741-3.75-3.812-3.75zM4.75 29.187a.938.938 0 0 1 0-1.876.938.938 0 0 1 0 1.876zm3.75 0a.938.938 0 0 1 0-1.876.938.938 0 0 1 0 1.876zm3.75 0a.938.938 0 0 1 0-1.876.938.938 0 0 1 0 1.876zm3.75 0a.938.938 0 0 1 0-1.876.938.938 0 0 1 0 1.876zm3.75 0a.938.938 0 0 1 0-1.876.938.938 0 0 1 0 1.876zm3.75 0a.938.938 0 0 1 0-1.876.938.938 0 0 1 0 1.876zm3.751 0a.938.938 0 0 1-.001-1.876.938.938 0 0 1 0 1.876zM11.313 15.062H5.687A.937.937 0 0 0 4.75 16v6.625h7.5V16a.938.938 0 0 0-.938-.938z"/><path fill="#bb1219" style="fill:var(--color1, #bb1219)" d="M26.374 15.062h-5.687a.937.937 0 0 0-.938.938v6.625h7.563V16a.937.937 0 0 0-.938-.938z"/></symbol></defs></svg>